<svg xmlns="http://www.w3.org/2000/svg" xmlns:xlink="http://www.w3.org/1999/xlink" width="793" zoomAndPan="magnify" viewBox="0 0 594.95996 842.24997" height="1122" preserveAspectRatio="xMidYMid meet" version="1.0"><defs><clipPath id="603513a7f7"><path d="M 178.667969 305.675781 L 416.207031 305.675781 L 416.207031 535.722656 L 178.667969 535.722656 Z M 178.667969 305.675781 " clip-rule="nonzero"/></clipPath></defs><g clip-path="url(#603513a7f7)"><path fill="#ffffff" d="M 244.109375 421.542969 C 234.71875 421.542969 227.101562 413.925781 227.101562 404.535156 C 227.101562 395.140625 234.71875 387.527344 244.109375 387.527344 C 253.503906 387.527344 261.117188 395.140625 261.117188 404.535156 C 261.117188 413.925781 253.503906 421.542969 244.109375 421.542969 Z M 307.203125 395.761719 L 303.792969 395.253906 C 298.941406 394.53125 294.867188 391.21875 293.1875 386.609375 C 292.679688 385.230469 292.121094 383.878906 291.507812 382.554688 C 289.433594 378.089844 289.941406 372.851562 292.875 368.898438 L 294.929688 366.125 C 295.742188 365.027344 295.628906 363.503906 294.664062 362.539062 L 286.105469 353.980469 C 285.140625 353.015625 283.617188 352.902344 282.519531 353.714844 L 279.746094 355.773438 C 275.792969 358.703125 270.554688 359.210938 266.089844 357.136719 C 264.769531 356.523438 263.414062 355.964844 262.035156 355.457031 C 257.425781 353.777344 254.113281 349.707031 253.390625 344.851562 L 252.882812 341.441406 C 252.683594 340.09375 251.523438 339.09375 250.160156 339.09375 L 238.058594 339.09375 C 236.695312 339.09375 235.535156 340.09375 235.335938 341.441406 L 234.828125 344.851562 C 234.105469 349.707031 230.792969 353.777344 226.1875 355.457031 C 224.804688 355.964844 223.453125 356.523438 222.128906 357.136719 C 217.664062 359.210938 212.425781 358.703125 208.472656 355.773438 L 205.699219 353.714844 C 204.605469 352.902344 203.078125 353.015625 202.113281 353.980469 L 193.554688 362.539062 C 192.589844 363.503906 192.480469 365.027344 193.289062 366.125 L 195.347656 368.898438 C 198.277344 372.851562 198.789062 378.089844 196.714844 382.554688 C 196.101562 383.878906 195.539062 385.230469 195.035156 386.609375 C 193.351562 391.21875 189.28125 394.53125 184.425781 395.253906 L 181.015625 395.761719 C 179.667969 395.960938 178.667969 397.117188 178.667969 398.484375 L 178.667969 410.585938 C 178.667969 411.949219 179.667969 413.109375 181.015625 413.308594 L 184.425781 413.816406 C 189.28125 414.539062 193.351562 417.851562 195.035156 422.460938 C 195.539062 423.839844 196.101562 425.191406 196.714844 426.515625 C 198.789062 430.980469 198.277344 436.21875 195.347656 440.171875 L 193.289062 442.945312 C 192.480469 444.042969 192.589844 445.566406 193.554688 446.53125 L 202.113281 455.089844 C 203.078125 456.054688 204.605469 456.164062 205.699219 455.355469 L 208.472656 453.296875 C 212.425781 450.367188 217.664062 449.855469 222.128906 451.933594 C 223.453125 452.542969 224.804688 453.105469 226.1875 453.609375 C 230.792969 455.292969 234.105469 459.367188 234.828125 464.21875 L 235.335938 467.628906 C 235.535156 468.980469 236.695312 469.980469 238.058594 469.980469 L 250.160156 469.980469 C 251.523438 469.980469 252.683594 468.980469 252.882812 467.628906 L 253.390625 464.21875 C 254.113281 459.367188 257.425781 455.292969 262.035156 453.609375 C 263.414062 453.105469 264.769531 452.542969 266.089844 451.933594 C 270.554688 449.855469 275.792969 450.367188 279.746094 453.296875 L 282.519531 455.355469 C 283.617188 456.164062 285.140625 456.054688 286.105469 455.089844 L 294.664062 446.53125 C 295.628906 445.566406 295.742188 444.042969 294.929688 442.945312 L 292.875 440.171875 C 289.941406 436.21875 289.433594 430.980469 291.507812 426.515625 C 292.121094 425.191406 292.679688 423.839844 293.1875 422.460938 C 294.867188 417.851562 298.941406 414.539062 303.792969 413.816406 L 307.203125 413.308594 C 308.550781 413.109375 309.550781 411.949219 309.550781 410.585938 L 309.550781 398.484375 C 309.550781 397.117188 308.550781 395.960938 307.203125 395.761719 Z M 351.117188 486.984375 C 341.722656 486.984375 334.109375 479.371094 334.109375 469.980469 C 334.109375 460.585938 341.722656 452.96875 351.117188 452.96875 C 360.507812 452.96875 368.125 460.585938 368.125 469.980469 C 368.125 479.371094 360.507812 486.984375 351.117188 486.984375 Z M 414.210938 461.203125 L 410.800781 460.695312 C 405.945312 459.976562 401.875 456.660156 400.191406 452.054688 C 399.6875 450.671875 399.125 449.320312 398.511719 447.996094 C 396.4375 443.53125 396.949219 438.292969 399.878906 434.339844 L 401.933594 431.566406 C 402.746094 430.472656 402.636719 428.945312 401.671875 427.980469 L 393.113281 419.421875 C 392.148438 418.460938 390.625 418.347656 389.527344 419.15625 L 386.753906 421.214844 C 382.800781 424.144531 377.5625 424.65625 373.097656 422.582031 C 371.773438 421.96875 370.421875 421.40625 369.042969 420.902344 C 364.433594 419.21875 361.121094 415.148438 360.398438 410.292969 L 359.890625 406.882812 C 359.691406 405.535156 358.53125 404.535156 357.167969 404.535156 L 345.066406 404.535156 C 343.699219 404.535156 342.542969 405.535156 342.34375 406.882812 L 341.835938 410.292969 C 341.113281 415.148438 337.796875 419.21875 333.191406 420.902344 C 331.8125 421.40625 330.460938 421.96875 329.136719 422.582031 C 324.671875 424.65625 319.433594 424.144531 315.480469 421.214844 L 312.707031 419.15625 C 311.609375 418.347656 310.085938 418.460938 309.121094 419.421875 L 300.5625 427.980469 C 299.597656 428.945312 299.484375 430.472656 300.296875 431.566406 L 302.355469 434.339844 C 305.28125 438.292969 305.792969 443.53125 303.71875 447.996094 C 303.105469 449.320312 302.542969 450.671875 302.039062 452.054688 C 300.359375 456.660156 296.285156 459.976562 291.433594 460.695312 L 288.023438 461.203125 C 286.671875 461.402344 285.675781 462.5625 285.675781 463.925781 L 285.675781 476.03125 C 285.675781 477.390625 286.671875 478.550781 288.023438 478.753906 L 291.433594 479.257812 C 296.285156 479.980469 300.359375 483.292969 302.039062 487.902344 C 302.542969 489.28125 303.105469 490.636719 303.71875 491.960938 C 305.792969 496.421875 305.28125 501.660156 302.355469 505.613281 L 300.296875 508.390625 C 299.484375 509.484375 299.597656 511.011719 300.5625 511.972656 L 309.121094 520.53125 C 310.085938 521.496094 311.609375 521.609375 312.707031 520.796875 L 315.480469 518.742188 C 319.433594 515.808594 324.671875 515.300781 329.136719 517.375 C 330.460938 517.988281 331.8125 518.550781 333.191406 519.054688 C 337.800781 520.738281 341.113281 524.808594 341.835938 529.660156 L 342.34375 533.070312 C 342.542969 534.421875 343.699219 535.421875 345.066406 535.421875 L 357.167969 535.421875 C 358.53125 535.421875 359.691406 534.421875 359.890625 533.070312 L 360.398438 529.660156 C 361.121094 524.808594 364.433594 520.738281 369.042969 519.054688 C 370.421875 518.550781 371.773438 517.988281 373.097656 517.375 C 377.5625 515.300781 382.800781 515.808594 386.753906 518.742188 L 389.527344 520.796875 C 390.625 521.609375 392.148438 521.496094 393.113281 520.53125 L 401.671875 511.972656 C 402.636719 511.011719 402.746094 509.484375 401.933594 508.390625 L 399.878906 505.613281 C 396.949219 501.660156 396.4375 496.421875 398.511719 491.960938 C 399.125 490.636719 399.6875 489.28125 400.191406 487.902344 C 401.875 483.292969 405.945312 479.980469 410.800781 479.257812 L 414.210938 478.753906 C 415.558594 478.550781 416.5625 477.390625 416.5625 476.03125 L 416.5625 463.925781 C 416.5625 462.5625 415.558594 461.402344 414.210938 461.203125 Z M 341.582031 365.859375 C 334.496094 365.859375 328.75 360.117188 328.75 353.03125 C 328.75 345.945312 334.496094 340.199219 341.582031 340.199219 C 348.667969 340.199219 354.410156 345.945312 354.410156 353.03125 C 354.410156 360.117188 348.667969 365.859375 341.582031 365.859375 Z M 387.171875 346.691406 L 384.707031 346.324219 C 381.203125 345.800781 378.261719 343.40625 377.042969 340.078125 C 376.679688 339.082031 376.273438 338.101562 375.828125 337.144531 C 374.332031 333.921875 374.699219 330.136719 376.816406 327.277344 L 378.304688 325.273438 C 378.890625 324.484375 378.808594 323.378906 378.113281 322.683594 L 371.929688 316.5 C 371.230469 315.804688 370.128906 315.722656 369.335938 316.308594 L 367.332031 317.792969 C 364.472656 319.914062 360.691406 320.28125 357.464844 318.78125 C 356.507812 318.339844 355.53125 317.933594 354.535156 317.570312 C 351.203125 316.351562 348.808594 313.410156 348.289062 309.902344 L 347.921875 307.441406 C 347.777344 306.464844 346.9375 305.742188 345.953125 305.742188 L 337.207031 305.742188 C 336.222656 305.742188 335.386719 306.464844 335.238281 307.441406 L 334.875 309.902344 C 334.351562 313.410156 331.960938 316.351562 328.628906 317.570312 C 327.632812 317.933594 326.652344 318.339844 325.699219 318.78125 C 322.472656 320.28125 318.6875 319.914062 315.828125 317.792969 L 313.828125 316.308594 C 313.035156 315.722656 311.929688 315.804688 311.234375 316.5 L 305.050781 322.683594 C 304.355469 323.378906 304.273438 324.484375 304.859375 325.273438 L 306.347656 327.277344 C 308.460938 330.136719 308.832031 333.921875 307.332031 337.144531 C 306.890625 338.101562 306.484375 339.082031 306.117188 340.078125 C 304.902344 343.40625 301.960938 345.800781 298.457031 346.324219 L 295.988281 346.691406 C 295.015625 346.835938 294.292969 347.671875 294.292969 348.65625 L 294.292969 357.402344 C 294.292969 358.386719 295.015625 359.226562 295.988281 359.371094 L 298.457031 359.738281 C 301.960938 360.257812 304.902344 362.652344 306.117188 365.980469 C 306.484375 366.980469 306.890625 367.957031 307.332031 368.914062 C 308.832031 372.136719 308.460938 375.925781 306.347656 378.78125 L 304.859375 380.785156 C 304.273438 381.578125 304.355469 382.679688 305.050781 383.378906 L 311.234375 389.558594 C 311.929688 390.257812 313.035156 390.339844 313.828125 389.75 L 315.828125 388.265625 C 318.6875 386.148438 322.472656 385.78125 325.699219 387.277344 C 326.652344 387.722656 327.632812 388.125 328.628906 388.492188 C 331.960938 389.707031 334.351562 392.652344 334.875 396.15625 L 335.238281 398.621094 C 335.386719 399.597656 336.222656 400.320312 337.207031 400.320312 L 345.953125 400.320312 C 346.9375 400.320312 347.777344 399.597656 347.921875 398.621094 L 348.289062 396.15625 C 348.808594 392.652344 351.203125 389.707031 354.535156 388.492188 C 355.53125 388.125 356.507812 387.722656 357.464844 387.277344 C 360.691406 385.78125 364.472656 386.148438 367.332031 388.265625 L 369.335938 389.75 C 370.128906 390.339844 371.230469 390.257812 371.929688 389.558594 L 378.113281 383.378906 C 378.808594 382.679688 378.890625 381.578125 378.304688 380.785156 L 376.816406 378.78125 C 374.699219 375.925781 374.332031 372.136719 375.828125 368.914062 C 376.273438 367.957031 376.679688 366.980469 377.042969 365.980469 C 378.261719 362.652344 381.203125 360.257812 384.707031 359.738281 L 387.171875 359.371094 C 388.148438 359.226562 388.867188 358.386719 388.867188 357.402344 L 388.867188 348.65625 C 388.867188 347.671875 388.148438 346.835938 387.171875 346.691406 " fill-opacity="1" fill-rule="nonzero"/></g></svg>