<svg xmlns="http://www.w3.org/2000/svg" xmlns:xlink="http://www.w3.org/1999/xlink" width="793" zoomAndPan="magnify" viewBox="0 0 594.95996 842.24997" height="1122" preserveAspectRatio="xMidYMid meet" version="1.0"><defs><clipPath id="85a8ec4e07"><path d="M 226 232.289062 L 373 232.289062 L 373 420.371094 L 226 420.371094 Z M 226 232.289062 " clip-rule="nonzero"/></clipPath></defs><g clip-path="url(#85a8ec4e07)"><path fill="#ffffff" d="M 321.390625 384.570312 C 321.390625 386.492188 320.6875 388.265625 319.46875 389.59375 L 254.203125 389.59375 C 249.882812 384.941406 253.464844 376.820312 259.886719 376.96875 C 259.886719 376.96875 313.785156 376.96875 313.785156 376.96875 C 317.992188 376.96875 321.390625 380.363281 321.390625 384.570312 Z M 254.203125 394.722656 C 249.882812 399.375 253.464844 407.496094 259.886719 407.347656 L 313.785156 407.347656 C 320.207031 407.496094 323.789062 399.339844 319.433594 394.722656 Z M 275.652344 420.566406 L 298.058594 420.566406 C 302.859375 420.566406 306.808594 417.058594 307.582031 412.480469 L 266.125 412.480469 C 266.902344 417.058594 270.851562 420.566406 275.652344 420.566406 Z M 324.121094 344.960938 C 316.222656 351.828125 311.386719 361.5 310.390625 371.835938 L 294.035156 371.835938 L 294.035156 268.472656 C 294.035156 266.292969 295.878906 264.558594 298.058594 264.742188 C 338.445312 268.324219 354.207031 319.007812 324.121094 344.960938 Z M 331.28125 310.40625 C 331.394531 294.902344 321.207031 280.359375 306.511719 275.300781 C 305 274.746094 303.265625 275.558594 302.746094 277.109375 C 302.195312 278.660156 302.96875 280.320312 304.519531 280.875 C 316.847656 285.121094 325.449219 297.339844 325.339844 310.40625 C 325.414062 314.285156 331.246094 314.285156 331.28125 310.40625 Z M 256.160156 354.265625 C 258.078125 352.269531 262.433594 349.6875 264.058594 353.339844 C 264.648438 354.855469 263.875 356.589844 262.324219 357.179688 C 255.679688 360.207031 259.113281 369.179688 263.246094 371.835938 L 276.5 371.835938 C 279.34375 369.769531 281.1875 366.445312 281.1875 362.679688 L 281.1875 278.992188 C 281.113281 266.921875 264.574219 263.378906 259.628906 274.339844 C 263.617188 275.117188 275.390625 285.15625 266.9375 287.039062 C 264.132812 286.929688 263.503906 283.199219 261.289062 281.945312 C 250.179688 273.160156 234.378906 285.195312 239.179688 298.003906 C 244.199219 297.082031 250.804688 299.554688 254.164062 303.800781 C 255.828125 305.609375 254.3125 308.746094 251.914062 308.671875 C 251.066406 308.671875 250.253906 308.304688 249.660156 307.601562 C 248.886719 306.679688 247.152344 304.980469 244.417969 304.207031 C 242.5 303.578125 239.84375 303.726562 238.292969 304.242188 C 222.972656 308.710938 221.714844 330.488281 236.335938 336.730469 C 238.328125 333.515625 249.996094 324.621094 252.097656 330.859375 C 252.503906 332.445312 251.507812 334.070312 249.957031 334.441406 C 233.125 338.613281 235.449219 362.238281 252.800781 362.71875 C 252.835938 359.839844 253.757812 356.664062 256.160156 354.265625 Z M 333.792969 274.046875 C 334.570312 274.046875 335.308594 273.75 335.898438 273.195312 L 349.59375 259.5 C 352.289062 256.695312 348.191406 252.597656 345.421875 255.328125 C 345.421875 255.328125 331.726562 269.023438 331.726562 269.023438 C 329.804688 270.761719 331.246094 274.121094 333.792969 274.046875 Z M 369.601562 307.859375 L 350.257812 307.859375 C 346.34375 307.933594 346.382812 313.730469 350.257812 313.765625 L 369.601562 313.765625 C 373.515625 313.730469 373.476562 307.933594 369.601562 307.859375 Z M 335.859375 348.503906 C 333.054688 345.808594 328.957031 349.90625 331.6875 352.675781 L 345.386719 366.371094 C 348.152344 369.105469 352.289062 364.933594 349.554688 362.199219 C 349.554688 362.164062 335.859375 348.503906 335.859375 348.503906 Z M 294.035156 257.582031 C 295.660156 257.582031 296.988281 256.253906 296.988281 254.628906 L 296.988281 235.246094 C 296.988281 233.621094 295.660156 232.292969 294.035156 232.292969 C 292.410156 232.292969 291.082031 233.621094 291.082031 235.246094 L 291.082031 254.589844 C 291.082031 256.253906 292.410156 257.582031 294.035156 257.582031 Z M 294.035156 257.582031 " fill-opacity="1" fill-rule="nonzero"/></g></svg>