<svg xmlns="http://www.w3.org/2000/svg" xmlns:xlink="http://www.w3.org/1999/xlink" width="793" zoomAndPan="magnify" viewBox="0 0 594.95996 842.24997" height="1122" preserveAspectRatio="xMidYMid meet" version="1.0"><defs><clipPath id="aa568f6da3"><path d="M 210.832031 301.621094 L 448.371094 301.621094 L 448.371094 539.160156 L 210.832031 539.160156 Z M 210.832031 301.621094 " clip-rule="nonzero"/></clipPath></defs><g clip-path="url(#aa568f6da3)"><path fill="#ffffff" d="M 329.777344 301.621094 C 264.089844 301.621094 210.832031 354.878906 210.832031 420.566406 C 210.832031 486.253906 264.089844 539.511719 329.777344 539.511719 C 395.464844 539.511719 448.722656 486.253906 448.722656 420.566406 C 448.722656 354.878906 395.464844 301.621094 329.777344 301.621094 Z M 386.34375 427.574219 L 346.695312 467.222656 C 344.761719 469.15625 342.226562 470.125 339.6875 470.125 C 337.152344 470.125 334.613281 469.15625 332.679688 467.222656 C 328.804688 463.347656 328.804688 457.082031 332.679688 453.207031 L 355.410156 430.476562 L 280.214844 430.476562 C 274.746094 430.476562 270.304688 426.046875 270.304688 420.566406 C 270.304688 415.085938 274.746094 410.652344 280.214844 410.652344 L 355.410156 410.652344 L 332.679688 387.925781 C 328.804688 384.050781 328.804688 377.785156 332.679688 373.910156 C 336.554688 370.035156 342.820312 370.035156 346.695312 373.910156 L 386.34375 413.558594 C 390.21875 417.433594 390.21875 423.699219 386.34375 427.574219 Z M 386.34375 427.574219 " fill-opacity="1" fill-rule="nonzero"/></g></svg>