<svg xmlns="http://www.w3.org/2000/svg" xmlns:xlink="http://www.w3.org/1999/xlink" width="793" zoomAndPan="magnify" viewBox="0 0 594.95996 842.24997" height="1122" preserveAspectRatio="xMidYMid meet" version="1.0"><defs><clipPath id="ade7817d1c"><path d="M 268 305.339844 L 416.207031 305.339844 L 416.207031 454 L 268 454 Z M 268 305.339844 " clip-rule="nonzero"/></clipPath></defs><g clip-path="url(#ade7817d1c)"><path fill="#ffffff" d="M 338.796875 305.363281 C 318.007812 305.363281 298.484375 313.429688 283.824219 328.097656 L 272.480469 339.441406 C 269.757812 342.164062 268.261719 345.78125 268.261719 349.628906 C 268.261719 353.484375 269.761719 357.097656 272.484375 359.8125 C 277.929688 365.257812 287.417969 365.257812 292.859375 359.8125 L 304.195312 348.46875 C 323.273438 329.398438 354.316406 329.40625 373.394531 348.46875 C 382.652344 357.722656 387.746094 370.011719 387.746094 383.066406 C 387.746094 396.121094 382.648438 408.410156 373.390625 417.667969 L 362.046875 429.015625 C 359.324219 431.734375 357.832031 435.351562 357.832031 439.199219 C 357.832031 443.054688 359.328125 446.667969 362.050781 449.382812 C 364.773438 452.105469 368.390625 453.605469 372.238281 453.605469 C 376.085938 453.605469 379.703125 452.105469 382.425781 449.382812 L 393.765625 438.039062 C 408.460938 423.335938 416.558594 403.816406 416.558594 383.066406 C 416.558594 362.316406 408.460938 342.796875 393.765625 328.097656 C 379.105469 313.429688 359.585938 305.363281 338.796875 305.363281 Z M 338.796875 305.363281 " fill-opacity="1" fill-rule="nonzero"/></g><path fill="#ffffff" d="M 263.800781 535.769531 C 284.585938 535.769531 304.109375 527.695312 318.773438 513.035156 L 330.117188 501.6875 C 332.839844 498.96875 334.332031 495.351562 334.332031 491.503906 C 334.332031 487.648438 332.835938 484.035156 330.113281 481.320312 C 324.664062 475.867188 315.179688 475.882812 309.738281 481.320312 L 298.402344 492.664062 C 279.339844 511.742188 248.289062 511.746094 229.199219 492.664062 C 210.125 473.589844 210.125 442.539062 229.199219 423.464844 L 240.546875 412.117188 C 246.164062 406.503906 246.164062 397.359375 240.546875 391.746094 C 234.933594 386.132812 225.789062 386.132812 220.175781 391.746094 L 208.828125 403.09375 C 178.527344 433.402344 178.527344 482.726562 208.828125 513.035156 C 223.488281 527.695312 243.011719 535.769531 263.800781 535.769531 Z M 263.800781 535.769531 " fill-opacity="1" fill-rule="nonzero"/><path fill="#ffffff" d="M 252.386719 469.480469 C 255.109375 472.203125 258.726562 473.699219 262.574219 473.699219 C 266.425781 473.699219 270.042969 472.203125 272.757812 469.480469 L 350.210938 392.023438 C 352.929688 389.300781 354.429688 385.683594 354.429688 381.835938 C 354.429688 377.988281 352.929688 374.375 350.210938 371.652344 C 344.769531 366.207031 335.273438 366.207031 329.839844 371.652344 L 252.386719 449.109375 C 249.664062 451.832031 248.167969 455.449219 248.167969 459.296875 C 248.167969 463.144531 249.664062 466.757812 252.386719 469.480469 Z M 252.386719 469.480469 " fill-opacity="1" fill-rule="nonzero"/></svg>