<svg xmlns="http://www.w3.org/2000/svg" xmlns:xlink="http://www.w3.org/1999/xlink" width="793" zoomAndPan="magnify" viewBox="0 0 594.95996 842.24997" height="1122" preserveAspectRatio="xMidYMid meet" version="1.0"><defs><clipPath id="3963db7bf0"><path d="M 178.667969 321.546875 L 416.207031 321.546875 L 416.207031 490 L 178.667969 490 Z M 178.667969 321.546875 " clip-rule="nonzero"/></clipPath><clipPath id="18adf5f007"><path d="M 258 479 L 338 479 L 338 519.367188 L 258 519.367188 Z M 258 479 " clip-rule="nonzero"/></clipPath><clipPath id="94234dbd55"><path d="M 178.667969 450 L 416.207031 450 L 416.207031 461 L 178.667969 461 Z M 178.667969 450 " clip-rule="nonzero"/></clipPath></defs><g clip-path="url(#3963db7bf0)"><path fill="#ffffff" d="M 401.585938 489.882812 L 193.640625 489.882812 C 185.449219 489.882812 178.785156 483.21875 178.785156 475.03125 L 178.785156 336.398438 C 178.785156 328.210938 185.449219 321.546875 193.640625 321.546875 L 401.585938 321.546875 C 409.777344 321.546875 416.441406 328.210938 416.441406 336.398438 L 416.441406 475.03125 C 416.441406 483.21875 409.777344 489.882812 401.585938 489.882812 Z M 193.640625 331.449219 C 190.90625 331.449219 188.6875 333.675781 188.6875 336.398438 L 188.6875 475.03125 C 188.6875 477.753906 190.90625 479.980469 193.640625 479.980469 L 401.585938 479.980469 C 404.320312 479.980469 406.539062 477.753906 406.539062 475.03125 L 406.539062 336.398438 C 406.539062 333.675781 404.320312 331.449219 401.585938 331.449219 Z M 193.640625 331.449219 " fill-opacity="1" fill-rule="nonzero"/></g><g clip-path="url(#18adf5f007)"><path fill="#ffffff" d="M 332.269531 519.589844 L 262.957031 519.589844 C 260.953125 519.589844 259.144531 518.382812 258.378906 516.53125 C 257.609375 514.679688 258.035156 512.550781 259.449219 511.136719 C 272.480469 498.101562 272.648438 485.488281 272.648438 484.953125 C 272.648438 482.238281 274.859375 480.011719 277.570312 479.992188 C 280.097656 479.695312 282.511719 482.140625 282.550781 484.855469 C 282.550781 485.429688 282.582031 496.6875 273.550781 509.679688 L 321.644531 509.679688 C 312.585938 496.726562 312.457031 485.496094 312.457031 484.921875 C 312.457031 482.191406 314.675781 479.972656 317.40625 479.972656 C 320.132812 479.972656 322.347656 482.179688 322.359375 484.894531 C 322.367188 485.515625 322.753906 498.125 335.765625 511.125 C 337.183594 512.539062 337.609375 514.671875 336.835938 516.523438 C 336.082031 518.382812 334.273438 519.589844 332.269531 519.589844 Z M 322.367188 484.933594 L 322.46875 484.933594 Z M 322.367188 484.933594 " fill-opacity="1" fill-rule="nonzero"/></g><g clip-path="url(#94234dbd55)"><path fill="#ffffff" d="M 411.488281 460.175781 L 183.738281 460.175781 C 181.003906 460.175781 178.785156 457.960938 178.785156 455.226562 C 178.785156 452.492188 181.003906 450.273438 183.738281 450.273438 L 411.488281 450.273438 C 414.222656 450.273438 416.441406 452.492188 416.441406 455.226562 C 416.441406 457.960938 414.222656 460.175781 411.488281 460.175781 Z M 411.488281 460.175781 " fill-opacity="1" fill-rule="nonzero"/></g><path fill="#ffffff" d="M 258.003906 430.46875 C 236.160156 430.46875 218.394531 412.707031 218.394531 390.863281 C 218.394531 369.015625 236.160156 351.253906 258.003906 351.253906 C 279.847656 351.253906 297.613281 369.015625 297.613281 390.863281 C 297.613281 412.707031 279.847656 430.46875 258.003906 430.46875 Z M 258.003906 361.15625 C 241.625 361.15625 228.296875 374.484375 228.296875 390.863281 C 228.296875 407.238281 241.625 420.566406 258.003906 420.566406 C 274.382812 420.566406 287.710938 407.238281 287.710938 390.863281 C 287.710938 374.484375 274.382812 361.15625 258.003906 361.15625 Z M 258.003906 361.15625 " fill-opacity="1" fill-rule="nonzero"/><path fill="#ffffff" d="M 233.496094 420.320312 C 232.226562 420.320312 230.960938 419.835938 229.992188 418.875 C 228.058594 416.945312 228.058594 413.804688 229.992188 411.875 L 253.054688 388.8125 L 253.054688 356.203125 C 253.054688 353.46875 255.269531 351.253906 258.003906 351.253906 C 260.738281 351.253906 262.957031 353.46875 262.957031 356.203125 L 262.957031 390.863281 C 262.957031 392.179688 262.429688 393.4375 261.507812 394.367188 L 237 418.875 C 236.03125 419.835938 234.761719 420.320312 233.496094 420.320312 Z M 233.496094 420.320312 " fill-opacity="1" fill-rule="nonzero"/><path fill="#ffffff" d="M 371.878906 376.007812 L 322.367188 376.007812 C 319.636719 376.007812 317.417969 373.789062 317.417969 371.058594 C 317.417969 368.324219 319.636719 366.105469 322.367188 366.105469 L 371.878906 366.105469 C 374.613281 366.105469 376.832031 368.324219 376.832031 371.058594 C 376.832031 373.789062 374.613281 376.007812 371.878906 376.007812 Z M 371.878906 376.007812 " fill-opacity="1" fill-rule="nonzero"/><path fill="#ffffff" d="M 371.878906 415.617188 L 322.367188 415.617188 C 319.636719 415.617188 317.417969 413.398438 317.417969 410.664062 C 317.417969 407.933594 319.636719 405.714844 322.367188 405.714844 L 371.878906 405.714844 C 374.613281 405.714844 376.832031 407.933594 376.832031 410.664062 C 376.832031 413.398438 374.613281 415.617188 371.878906 415.617188 Z M 371.878906 415.617188 " fill-opacity="1" fill-rule="nonzero"/></svg>