<svg xmlns="http://www.w3.org/2000/svg" xmlns:xlink="http://www.w3.org/1999/xlink" width="793" zoomAndPan="magnify" viewBox="0 0 594.95996 842.24997" height="1122" preserveAspectRatio="xMidYMid meet" version="1.0"><defs><clipPath id="3863b98b14"><path d="M 221 466 L 374 466 L 374 539.160156 L 221 539.160156 Z M 221 466 " clip-rule="nonzero"/></clipPath><clipPath id="8b1e548534"><path d="M 247 301.621094 L 348 301.621094 L 348 402 L 247 402 Z M 247 301.621094 " clip-rule="nonzero"/></clipPath><clipPath id="995249ff2d"><path d="M 334 372 L 416.207031 372 L 416.207031 454 L 334 454 Z M 334 372 " clip-rule="nonzero"/></clipPath><clipPath id="15ef168f89"><path d="M 178.667969 372 L 261 372 L 261 454 L 178.667969 454 Z M 178.667969 372 " clip-rule="nonzero"/></clipPath></defs><path fill="#ffffff" d="M 275.347656 440.792969 C 275.347656 453.039062 285.367188 463.058594 297.613281 463.058594 C 309.859375 463.058594 319.878906 453.039062 319.878906 440.792969 C 319.878906 428.546875 309.859375 418.523438 297.613281 418.523438 C 285.367188 418.523438 275.347656 428.546875 275.347656 440.792969 Z M 312.457031 440.792969 C 312.457031 448.957031 305.777344 455.636719 297.613281 455.636719 C 289.449219 455.636719 282.769531 448.957031 282.769531 440.792969 C 282.769531 432.628906 289.449219 425.949219 297.613281 425.949219 C 305.777344 425.949219 312.457031 432.628906 312.457031 440.792969 Z M 312.457031 440.792969 " fill-opacity="1" fill-rule="nonzero"/><g clip-path="url(#3863b98b14)"><path fill="#ffffff" d="M 367.753906 472.152344 C 364.972656 469.367188 360.703125 468.996094 357.550781 471.410156 C 357.550781 471.410156 357.363281 471.410156 357.363281 471.59375 L 342.148438 484.214844 C 341.960938 484.214844 341.777344 484.214844 341.777344 484.214844 L 328.046875 474.191406 C 320.992188 467.511719 312.644531 466.769531 309.304688 466.769531 L 284.996094 466.769531 C 284.808594 466.769531 284.625 466.769531 284.4375 466.769531 C 280.542969 466.957031 273.304688 468.253906 266.996094 474.191406 L 253.449219 484.214844 C 253.265625 484.214844 253.078125 484.398438 253.078125 484.214844 L 237.863281 471.59375 C 237.863281 471.59375 237.675781 471.59375 237.675781 471.410156 C 234.523438 469.183594 230.253906 469.367188 227.472656 472.152344 L 223.761719 476.050781 C 222.273438 477.71875 221.347656 479.761719 221.53125 481.988281 C 221.71875 484.214844 222.832031 486.253906 224.503906 487.554688 L 248.625 507.410156 C 251.410156 509.449219 255.121094 509.449219 257.902344 507.59375 L 271.632812 498.6875 L 271.632812 530.976562 C 271.632812 534.871094 274.976562 539.511719 279.613281 539.511719 L 315.796875 539.511719 C 320.25 539.511719 323.777344 535.058594 323.777344 530.976562 L 323.777344 498.6875 L 337.507812 507.78125 C 340.292969 509.820312 344.003906 509.636719 346.785156 507.59375 L 370.722656 487.925781 C 372.582031 486.625 373.695312 484.585938 373.695312 482.359375 C 373.878906 480.132812 372.953125 477.90625 371.464844 476.421875 Z M 366.085938 481.617188 L 342.148438 501.285156 C 341.960938 501.472656 341.777344 501.472656 341.589844 501.285156 C 341.589844 501.285156 341.40625 501.285156 341.40625 501.101562 L 321.734375 488.296875 C 320.621094 487.554688 319.136719 487.554688 318.023438 488.109375 C 316.910156 488.667969 316.167969 489.964844 316.167969 491.449219 L 316.167969 530.605469 C 316.167969 530.976562 315.796875 531.53125 315.425781 531.71875 L 282.953125 531.71875 C 282.769531 531.71875 282.582031 531.71875 282.582031 531.71875 L 279.800781 531.71875 C 279.613281 531.53125 279.058594 530.976562 279.058594 530.605469 L 279.058594 491.449219 C 279.058594 490.152344 278.316406 488.851562 277.203125 488.109375 C 276.644531 487.738281 276.089844 487.738281 275.347656 487.738281 C 274.605469 487.738281 273.863281 487.925781 273.304688 488.296875 L 253.636719 500.914062 C 253.636719 500.914062 253.449219 500.914062 253.449219 501.101562 C 253.265625 501.285156 253.078125 501.285156 253.078125 501.101562 L 229.140625 481.617188 C 229.140625 481.617188 228.957031 481.617188 228.957031 481.429688 C 228.957031 481.246094 228.957031 481.246094 228.957031 481.246094 L 232.667969 477.347656 C 232.851562 477.164062 233.039062 477.164062 233.222656 477.347656 L 248.441406 489.964844 C 248.441406 489.964844 248.625 489.964844 248.625 490.152344 C 251.410156 492.191406 255.121094 492.191406 257.902344 490.152344 L 271.632812 480.132812 C 271.820312 479.945312 271.820312 479.945312 272.003906 479.761719 C 276.644531 475.121094 282.210938 474.378906 284.996094 474.191406 C 284.996094 474.191406 285.179688 474.191406 285.179688 474.191406 L 309.304688 474.191406 C 311.714844 474.191406 317.839844 474.75 323.035156 479.761719 C 323.222656 479.945312 323.222656 479.945312 323.40625 480.132812 L 337.136719 490.152344 C 339.921875 492.191406 343.632812 492.191406 346.414062 490.152344 C 346.414062 490.152344 346.601562 490.152344 346.601562 489.964844 L 361.816406 477.347656 C 362.003906 477.347656 362.1875 477.347656 362.375 477.347656 L 366.085938 481.246094 C 366.085938 481.246094 366.269531 481.429688 366.085938 481.429688 C 366.269531 481.617188 366.269531 481.617188 366.085938 481.617188 Z M 366.085938 481.617188 " fill-opacity="1" fill-rule="nonzero"/></g><path fill="#ffffff" d="M 230.625 388.835938 C 226.359375 388.648438 222.460938 390.691406 219.675781 393.472656 C 216.894531 390.691406 212.996094 388.648438 208.730469 388.835938 C 200.566406 389.207031 193.882812 396.257812 193.699219 404.792969 C 193.511719 408.875 194.996094 412.773438 197.222656 415.742188 C 197.410156 416.113281 216.707031 439.492188 216.707031 439.492188 C 217.449219 440.421875 218.378906 440.792969 219.492188 440.792969 C 220.605469 440.792969 221.71875 440.234375 222.273438 439.492188 L 240.832031 416.855469 C 241.945312 415.554688 242.6875 414.441406 243.429688 413.144531 C 244.914062 410.359375 245.46875 407.578125 245.46875 404.980469 C 245.46875 396.257812 238.789062 389.207031 230.625 388.835938 Z M 238.234375 404.980469 C 238.234375 406.464844 237.863281 407.949219 236.933594 409.617188 C 236.5625 410.359375 236.007812 411.289062 235.265625 412.03125 L 219.675781 431.328125 C 214.296875 424.832031 203.164062 411.289062 202.976562 411.101562 C 201.679688 409.617188 200.9375 407.390625 201.121094 405.164062 C 201.308594 400.523438 204.832031 396.628906 209.101562 396.441406 C 209.101562 396.441406 209.285156 396.441406 209.285156 396.441406 C 212.253906 396.441406 215.039062 399.039062 216.523438 401.453125 C 217.265625 402.566406 218.378906 403.125 219.675781 403.125 C 220.976562 403.125 222.089844 402.382812 222.832031 401.453125 C 224.316406 399.039062 227.101562 396.257812 230.253906 396.441406 C 234.523438 396.441406 238.046875 400.339844 238.234375 404.980469 Z M 238.234375 404.980469 " fill-opacity="1" fill-rule="nonzero"/><path fill="#ffffff" d="M 385.011719 400.152344 L 379.261719 387.164062 C 378.703125 385.867188 377.40625 384.9375 375.921875 384.9375 C 374.4375 384.9375 373.136719 385.679688 372.582031 386.980469 L 366.269531 399.597656 L 352.726562 401.453125 C 351.425781 401.640625 350.128906 402.566406 349.757812 403.867188 C 349.199219 405.164062 349.570312 406.648438 350.5 407.578125 L 360.148438 417.78125 L 357.550781 431.886719 C 357.363281 433.371094 357.921875 434.667969 359.035156 435.597656 C 360.148438 436.523438 361.632812 436.523438 362.929688 435.96875 L 374.992188 429.660156 L 386.867188 436.523438 C 387.425781 436.894531 388.167969 437.082031 388.722656 437.082031 C 389.464844 437.082031 390.207031 436.894531 390.765625 436.523438 C 391.878906 435.78125 392.621094 434.296875 392.433594 433 L 390.394531 418.710938 L 400.414062 408.875 C 401.34375 407.949219 401.714844 406.464844 401.34375 405.164062 C 400.972656 403.867188 399.859375 402.9375 398.375 402.566406 Z M 383.898438 414.628906 C 382.972656 415.371094 382.601562 416.667969 382.785156 417.78125 L 384.085938 426.320312 L 377.035156 422.234375 C 376.476562 421.863281 375.734375 421.679688 375.179688 421.679688 C 374.621094 421.679688 374.066406 421.863281 373.507812 422.050781 L 366.269531 425.761719 L 367.753906 417.226562 C 367.941406 416.113281 367.570312 414.8125 366.828125 414.070312 L 360.890625 407.761719 L 369.054688 406.648438 C 370.351562 406.464844 371.28125 405.722656 371.835938 404.609375 L 375.550781 397.183594 L 378.890625 404.792969 C 379.445312 405.90625 380.375 406.648438 381.671875 407.019531 L 389.835938 408.503906 Z M 383.898438 414.628906 " fill-opacity="1" fill-rule="nonzero"/><path fill="#ffffff" d="M 332.871094 349.496094 C 332.871094 347.269531 332.128906 345.042969 330.085938 343.371094 C 330.828125 342.074219 331.199219 340.773438 331.199219 339.289062 C 331.199219 334.464844 327.117188 330.570312 321.550781 330.011719 C 321.363281 330.011719 321.363281 330.011719 321.179688 330.011719 L 305.035156 330.011719 L 306.890625 324.628906 C 307.632812 322.402344 307.449219 319.992188 306.335938 317.949219 C 305.222656 315.722656 303.367188 314.238281 300.953125 313.496094 C 296.128906 312.011719 291.117188 314.609375 289.449219 319.25 L 284.996094 332.980469 C 284.996094 333.167969 284.996094 333.351562 284.808594 333.539062 C 284.808594 333.910156 284.253906 334.28125 283.695312 334.464844 C 282.582031 333.167969 280.914062 332.425781 279.058594 332.425781 L 272.191406 332.425781 C 268.664062 332.425781 265.695312 335.394531 265.695312 338.917969 L 265.695312 373.433594 C 265.695312 376.960938 268.664062 379.929688 272.191406 379.929688 L 279.058594 379.929688 C 279.984375 379.929688 280.726562 379.742188 281.46875 379.371094 C 282.210938 379.742188 282.953125 379.929688 283.695312 379.929688 L 315.425781 379.929688 C 318.394531 379.929688 320.992188 378.816406 323.035156 376.773438 C 324.707031 375.101562 325.632812 372.691406 325.632812 370.464844 C 325.632812 369.351562 325.449219 368.238281 325.078125 367.308594 C 327.304688 365.824219 328.789062 363.226562 328.789062 360.074219 C 328.789062 359.144531 328.601562 358.21875 328.230469 357.289062 C 331.199219 355.621094 332.871094 353.023438 332.871094 349.496094 Z M 278.5 372.132812 L 273.492188 372.132812 L 273.492188 339.289062 L 278.5 339.289062 Z M 323.035156 350.980469 L 319.136719 350.980469 C 317.097656 350.980469 315.425781 352.652344 315.425781 354.691406 C 315.425781 356.734375 317.097656 358.402344 319.136719 358.402344 C 320.621094 358.402344 321.550781 359.332031 321.550781 359.886719 C 321.550781 360.816406 320.992188 361.371094 319.878906 361.371094 L 316.726562 361.371094 C 314.683594 361.371094 313.015625 363.042969 313.015625 365.082031 C 313.015625 367.125 314.683594 368.792969 316.726562 368.792969 L 316.910156 368.792969 C 318.023438 368.792969 318.582031 369.351562 318.582031 370.277344 C 318.582031 370.464844 318.582031 370.835938 318.210938 371.390625 C 317.652344 371.949219 316.910156 372.132812 315.984375 372.132812 L 285.921875 372.132812 L 285.921875 341.144531 C 289.078125 340.402344 291.675781 337.992188 292.417969 334.835938 L 296.871094 321.289062 C 297.242188 320.546875 298.171875 319.992188 299.097656 320.363281 C 299.65625 320.546875 300.027344 320.917969 300.027344 321.105469 C 300.210938 321.289062 300.210938 321.660156 300.027344 322.03125 L 297.054688 330.753906 C 296.5 332.425781 296.871094 334.28125 297.984375 335.578125 C 299.097656 336.878906 300.582031 337.433594 302.253906 337.25 L 320.992188 337.25 C 322.664062 337.433594 323.59375 338.363281 323.59375 339.105469 C 323.59375 339.660156 322.664062 340.589844 321.179688 340.589844 C 321.179688 340.589844 321.179688 340.589844 320.992188 340.589844 C 318.953125 340.589844 317.28125 342.257812 317.28125 344.300781 C 317.28125 346.339844 318.953125 348.011719 320.992188 348.011719 C 321.734375 348.011719 325.078125 348.011719 325.078125 349.496094 C 325.449219 350.050781 325.449219 350.980469 323.035156 350.980469 Z M 323.035156 350.980469 " fill-opacity="1" fill-rule="nonzero"/><g clip-path="url(#8b1e548534)"><path fill="#ffffff" d="M 347.714844 351.722656 C 347.714844 324.074219 325.261719 301.621094 297.613281 301.621094 C 269.964844 301.621094 247.511719 324.074219 247.511719 351.722656 C 247.511719 379.371094 269.964844 401.824219 297.613281 401.824219 C 325.261719 401.824219 347.714844 379.371094 347.714844 351.722656 Z M 297.613281 394.402344 C 274.046875 394.402344 254.933594 375.289062 254.933594 351.722656 C 254.933594 328.15625 274.046875 309.042969 297.613281 309.042969 C 321.179688 309.042969 340.292969 328.15625 340.292969 351.722656 C 340.292969 375.289062 321.179688 394.402344 297.613281 394.402344 Z M 297.613281 394.402344 " fill-opacity="1" fill-rule="nonzero"/></g><g clip-path="url(#995249ff2d)"><path fill="#ffffff" d="M 375.550781 372.132812 C 353.097656 372.132812 334.726562 390.503906 334.726562 412.957031 C 334.726562 435.410156 353.097656 453.78125 375.550781 453.78125 C 398.003906 453.78125 416.371094 435.410156 416.371094 412.957031 C 416.371094 390.503906 398.003906 372.132812 375.550781 372.132812 Z M 375.550781 446.359375 C 357.179688 446.359375 342.148438 431.328125 342.148438 412.957031 C 342.148438 394.585938 357.179688 379.558594 375.550781 379.558594 C 393.917969 379.558594 408.949219 394.585938 408.949219 412.957031 C 408.949219 431.328125 393.917969 446.359375 375.550781 446.359375 Z M 375.550781 446.359375 " fill-opacity="1" fill-rule="nonzero"/></g><g clip-path="url(#15ef168f89)"><path fill="#ffffff" d="M 260.5 412.957031 C 260.5 390.503906 242.128906 372.132812 219.675781 372.132812 C 197.222656 372.132812 178.855469 390.503906 178.855469 412.957031 C 178.855469 435.410156 197.222656 453.78125 219.675781 453.78125 C 242.128906 453.78125 260.5 435.410156 260.5 412.957031 Z M 219.675781 446.359375 C 201.308594 446.359375 186.277344 431.328125 186.277344 412.957031 C 186.277344 394.585938 201.308594 379.558594 219.675781 379.558594 C 238.046875 379.558594 253.078125 394.585938 253.078125 412.957031 C 253.078125 431.328125 238.046875 446.359375 219.675781 446.359375 Z M 219.675781 446.359375 " fill-opacity="1" fill-rule="nonzero"/></g></svg>