<svg xmlns="http://www.w3.org/2000/svg" xmlns:xlink="http://www.w3.org/1999/xlink" width="793" zoomAndPan="magnify" viewBox="0 0 594.95996 842.24997" height="1122" preserveAspectRatio="xMidYMid meet" version="1.0"><defs><clipPath id="428d5726db"><path d="M 178.667969 301.621094 L 416.207031 301.621094 L 416.207031 539.160156 L 178.667969 539.160156 Z M 178.667969 301.621094 " clip-rule="nonzero"/></clipPath></defs><g clip-path="url(#428d5726db)"><path fill="#ffffff" d="M 297.613281 531.785156 C 236.289062 531.785156 186.394531 481.890625 186.394531 420.566406 C 186.394531 359.234375 236.289062 309.347656 297.613281 309.347656 C 358.9375 309.347656 408.832031 359.234375 408.832031 420.566406 C 408.832031 481.890625 358.9375 531.785156 297.613281 531.785156 Z M 297.613281 301.621094 C 232.027344 301.621094 178.667969 354.980469 178.667969 420.566406 C 178.667969 486.152344 232.027344 539.511719 297.613281 539.511719 C 363.199219 539.511719 416.558594 486.152344 416.558594 420.566406 C 416.558594 354.980469 363.199219 301.621094 297.613281 301.621094 " fill-opacity="1" fill-rule="nonzero"/></g><path fill="#ffffff" d="M 343.941406 427.886719 C 342.917969 427.121094 343.691406 425.792969 342.757812 424.839844 C 341.261719 427.140625 340.90625 430.675781 339.167969 432.027344 C 337.738281 430.878906 337.238281 429.339844 336.5 427.964844 C 335.730469 426.527344 335.128906 425.015625 334.832031 423.234375 C 333.648438 424.085938 333.117188 423.558594 332.632812 422.535156 C 332.121094 421.457031 331.816406 420.273438 331.269531 419.214844 C 330.851562 418.402344 329.777344 418.207031 329.101562 418.820312 C 327.101562 420.652344 325.792969 423.613281 325.972656 426.4375 C 326.195312 429.964844 328.066406 432.628906 330.453125 435.203125 C 330.738281 435.519531 331.253906 435.429688 331.414062 435.042969 C 331.617188 434.574219 331.777344 434.1875 331.941406 433.804688 C 332.28125 436.152344 332.347656 438.269531 333.679688 440.210938 C 336.070312 443.6875 339.019531 446.832031 339.9375 451.199219 C 341.789062 449.777344 343.597656 446.367188 343.964844 443.859375 C 344.28125 441.703125 344.164062 439.523438 344.300781 437.355469 C 344.378906 436.175781 344.335938 434.9375 345.167969 433.871094 C 345.371094 434.652344 345.496094 435.175781 345.636719 435.78125 C 345.792969 436.417969 345.898438 437.15625 346.558594 437.375 C 347.347656 437.632812 347.667969 436.851562 347.984375 436.332031 C 349.378906 434.027344 350.675781 431.660156 351.480469 429.078125 C 352.875 424.628906 351.0625 419.859375 347.167969 417.671875 C 347.082031 417.617188 346.96875 417.574219 346.851562 417.542969 C 346.078125 417.339844 345.371094 418.070312 345.625 418.832031 C 345.636719 418.863281 345.644531 418.886719 345.65625 418.90625 C 346.664062 421.125 346.460938 423.625 345.5625 425.941406 C 345.257812 426.722656 344.898438 427.566406 343.941406 427.886719 " fill-opacity="1" fill-rule="nonzero"/><path fill="#ffffff" d="M 379.988281 444.1875 C 378.15625 441.007812 375.113281 440.082031 371.382812 441.671875 C 369.550781 442.445312 346.25 454.1875 337.070312 458.757812 C 335.515625 459.53125 334.007812 460.414062 332.535156 461.335938 C 330.261719 462.753906 327.957031 463.570312 325.1875 463.578125 C 316.738281 463.585938 293.414062 463.632812 290.203125 463.652344 C 288.824219 463.652344 287.242188 463.542969 287.210938 461.875 C 287.175781 460.070312 288.675781 460.027344 290.035156 460.027344 C 290.632812 460.027344 314.433594 460.113281 325.738281 460.023438 C 330.339844 459.984375 333.394531 457.128906 333.265625 453.070312 C 333.140625 449.199219 330.105469 446.703125 325.613281 446.664062 C 320.378906 446.609375 315.140625 446.546875 309.910156 446.703125 C 307.496094 446.769531 305.65625 446.097656 303.789062 444.527344 C 297.527344 439.269531 290.476562 435.308594 282.335938 433.949219 C 272.882812 432.367188 263.335938 433.308594 253.574219 433.160156 L 253.574219 472.128906 C 259.371094 475.386719 282.347656 488.085938 295.554688 491.871094 C 298.773438 492.792969 302.402344 493.40625 305.195312 492.644531 C 310.933594 491.085938 316.613281 488.992188 322.066406 486.382812 C 338.136719 478.6875 374.617188 455.226562 377.789062 452.921875 C 380.960938 450.617188 381.742188 447.203125 379.988281 444.1875 " fill-opacity="1" fill-rule="nonzero"/><path fill="#ffffff" d="M 240.242188 470.851562 L 234.398438 474.222656 L 228.558594 470.851562 L 228.558594 464.105469 L 234.398438 460.734375 L 240.242188 464.105469 Z M 246.324219 428.222656 L 222.46875 428.222656 C 221.46875 428.222656 220.664062 429.027344 220.664062 430.027344 L 220.664062 477.726562 C 220.664062 478.71875 221.46875 479.53125 222.46875 479.53125 L 246.324219 479.53125 C 247.320312 479.53125 248.128906 478.71875 248.128906 477.726562 L 248.128906 430.027344 C 248.128906 429.027344 247.320312 428.222656 246.324219 428.222656 " fill-opacity="1" fill-rule="nonzero"/><path fill="#ffffff" d="M 338.953125 362.148438 C 342.980469 362.148438 346.246094 365.410156 346.246094 369.4375 C 346.246094 373.464844 342.980469 376.730469 338.953125 376.730469 C 334.925781 376.730469 331.660156 373.464844 331.660156 369.4375 C 331.660156 365.410156 334.925781 362.148438 338.953125 362.148438 Z M 314.945312 421.066406 C 315.246094 421.085938 315.546875 421.007812 315.800781 420.851562 C 315.832031 420.828125 315.863281 420.800781 315.894531 420.78125 C 315.914062 420.765625 316.433594 420.363281 316.675781 420.15625 C 319.0625 418.144531 321.464844 416.160156 323.824219 414.125 C 324.523438 413.515625 325.226562 413.285156 326.152344 413.292969 C 330.421875 413.3125 347.488281 413.3125 351.757812 413.292969 C 352.695312 413.285156 353.394531 413.515625 354.09375 414.125 C 356.449219 416.160156 358.851562 418.144531 361.238281 420.15625 C 361.492188 420.375 362.078125 420.789062 362.117188 420.8125 C 362.160156 420.839844 362.203125 420.863281 362.246094 420.886719 C 362.433594 420.980469 362.636719 421.019531 362.847656 421.019531 C 363.632812 421.03125 364.183594 420.722656 364.445312 420.058594 C 364.496094 419.929688 364.53125 419.785156 364.5625 419.625 C 364.605469 419.375 364.605469 419.121094 364.582031 418.875 C 364.570312 418.707031 364.550781 418.546875 364.527344 418.355469 C 364.425781 417.488281 363.925781 415.1875 363.871094 414.929688 C 362.164062 407.496094 358.820312 400.816406 353.714844 394.96875 C 353.058594 394.21875 352.769531 393.492188 352.773438 392.503906 C 352.796875 386.839844 352.738281 369.46875 352.742188 368.867188 C 352.953125 366.613281 352.484375 364.511719 351.390625 362.53125 C 347.953125 356.253906 344.515625 349.972656 341.078125 343.699219 C 340.632812 342.890625 340.308594 341.925781 339.25 341.820312 C 338.914062 341.789062 338.976562 341.789062 338.660156 341.820312 C 337.609375 341.933594 337.28125 342.890625 336.835938 343.699219 C 333.394531 349.972656 329.964844 356.253906 326.519531 362.53125 C 325.429688 364.511719 324.957031 366.613281 325.167969 368.867188 C 325.179688 369.46875 325.132812 391.171875 325.136719 392.503906 C 325.144531 393.492188 324.851562 394.21875 324.203125 394.96875 C 319.089844 400.816406 315.746094 407.496094 314.042969 414.929688 C 313.988281 415.1875 313.523438 417.492188 313.386719 418.355469 C 313.347656 418.609375 313.3125 418.867188 313.304688 419.117188 C 313.3125 419.480469 313.367188 419.796875 313.464844 420.058594 C 313.714844 420.691406 314.214844 421.042969 314.945312 421.066406 " fill-opacity="1" fill-rule="nonzero"/></svg>